<svg width="228" height="228" viewBox="0 0 228 228" fill="none" xmlns="http://www.w3.org/2000/svg">
<circle cx="114" cy="114" r="112.5" stroke="#C0C0C0" stroke-width="3"/>
<path d="M145.613 77.7636C150.473 77.7636 154.41 73.8532 154.41 68.9847V59.7964C154.41 54.9235 150.477 51 145.613 51C140.749 51 136.821 54.9192 136.821 59.7964V68.989C136.826 73.8532 140.754 77.7636 145.613 77.7636Z" fill="#949292"/>
<path d="M176.865 66.2172H159.159V70.6894C159.159 78.0705 153.163 84.0843 145.769 84.0843C138.366 84.0843 132.382 78.0705 132.382 70.6894V66.2172H96.6525V70.6894C96.6525 78.0705 90.6474 84.0843 83.2576 84.0843C75.8678 84.0843 69.8671 78.0749 69.8671 70.6894V66.2172L52 65.9951V177.814H60.9357H168.077L177 177.787L176.865 66.2172ZM168.069 168.908H60.9357V97.4748H168.077V168.908H168.069Z" fill="#949292"/>
<path d="M83.1177 77.7636C87.9775 77.7636 91.9185 73.8532 91.9185 68.9847V59.7964C91.9185 54.9192 87.9775 51 83.1177 51C78.258 51 74.3301 54.9192 74.3301 59.7964V68.989C74.3301 73.8532 78.2536 77.7636 83.1177 77.7636Z" fill="#949292"/>
<path d="M110.748 107.058H96.6777V119.477H110.748V107.058Z" fill="#949292"/>
<path d="M133.512 107.058H119.429V119.477H133.512V107.058Z" fill="#949292"/>
<path d="M154.596 107.058H140.526V119.477H154.596V107.058Z" fill="#949292"/>
<path d="M110.748 127.683H96.6777V140.093H110.748V127.683Z" fill="#949292"/>
<path d="M133.512 127.683H119.429V140.093H133.512V127.683Z" fill="#949292"/>
<path d="M154.596 127.683H140.526V140.093H154.596V127.683Z" fill="#949292"/>
<path d="M110.748 148.716H96.6777V161.127H110.748V148.716Z" fill="#949292"/>
<path d="M88.3912 127.683H74.3301V140.093H88.3912V127.683Z" fill="#949292"/>
<path d="M88.3912 148.716H74.3301V161.127H88.3912V148.716Z" fill="#949292"/>
<path d="M133.512 148.716H119.429V161.127H133.512V148.716Z" fill="#949292"/>
<path d="M154.596 148.716H140.526V161.127H154.596V148.716Z" fill="#949292"/>
</svg>
