<svg width="53" height="97" viewBox="0 0 53 97" fill="none" xmlns="http://www.w3.org/2000/svg">
<path d="M50.0891 0.02L37.6241 0C23.6201 0 14.5701 9.285 14.5701 23.656V34.563H2.03715C0.954149 34.563 0.0771484 35.441 0.0771484 36.524V52.327C0.0771484 53.41 0.955149 54.287 2.03715 54.287H14.5701V94.163C14.5701 95.246 15.4471 96.123 16.5301 96.123H32.8821C33.9651 96.123 34.8421 95.245 34.8421 94.163V54.287H49.4962C50.5792 54.287 51.4562 53.41 51.4562 52.327L51.4621 36.524C51.4621 36.004 51.2551 35.506 50.8881 35.138C50.5211 34.77 50.0211 34.563 49.5011 34.563H34.8421V25.317C34.8421 20.873 35.9011 18.617 41.6901 18.617L50.0871 18.614C51.1691 18.614 52.0461 17.736 52.0461 16.654V1.98C52.0461 0.899 51.1701 0.022 50.0891 0.02Z" fill="white"/>
</svg>
