<svg width="228" height="228" viewBox="0 0 228 228" fill="none" xmlns="http://www.w3.org/2000/svg">
<circle cx="114" cy="114" r="112.5" stroke="#C0C0C0" stroke-width="3"/>
<path d="M184.582 133.067L120.075 92.6655V89.6308C120.075 87.8379 120.995 86.393 122.97 85.0902C123.214 84.9278 123.502 84.7536 123.821 84.5591C126.954 82.6384 133.477 78.6432 133.477 69.6373C133.477 60.2831 125.767 53.1051 118.311 51.5674C110.46 49.9369 103.34 51.8487 98.7034 56.9379C94.4762 61.5627 93.2894 65.4158 93.0399 71.6712C93.0195 72.1238 93.0081 73.0985 92.9963 74.0501C92.9846 75.3644 95.5784 76.4323 98.7816 76.4323H99.942C103.145 76.4323 105.748 75.3704 105.754 74.0562C105.756 72.9711 105.765 71.8803 105.774 71.674C105.951 67.3597 107.111 64.8208 111.516 63.9303C114.254 63.3792 117.211 64.1451 118.943 65.8424C119.729 66.6084 120.144 67.9372 120.028 69.3097C119.953 70.2238 119.561 71.9353 117.835 73.125L112.308 76.8881C108.783 79.1454 107.282 81.8467 107.282 85.9172V92.6744L43.4264 132.925C33.9619 138.762 35.9204 148.717 36.7474 151.63C37.5048 154.285 40.9486 162.946 53.4885 162.946H175.309C184.17 162.946 189.775 157.184 191.408 151.468C193.1 145.491 191.266 137.007 184.582 133.067ZM178.027 147.127C177.723 148.195 176.733 149.347 175.126 149.347C175.123 149.347 175.123 149.347 175.123 149.347H53.3346C51.6459 149.341 50.6944 148.233 50.3927 147.287C50.0069 146.071 50.5059 144.829 51.6549 144.014L114.075 104.944L176.841 144.18C178.393 145.152 178.187 146.564 178.027 147.127Z" fill="#949292"/>
</svg>
