<svg width="228" height="228" viewBox="0 0 228 228" fill="none" xmlns="http://www.w3.org/2000/svg">
<circle cx="114" cy="114" r="112.5" stroke="#C0C0C0" stroke-width="3"/>
<path d="M184.516 107.708C184.163 107.455 183.71 107.388 183.298 107.528C183.298 107.528 137.509 123.101 136.258 123.533C135.21 123.894 134.532 122.986 134.532 122.986L120.123 105.19C119.764 104.746 119.165 104.578 118.627 104.768C118.09 104.958 117.729 105.466 117.729 106.037V170.633C117.729 171.083 117.954 171.503 118.328 171.753C118.553 171.903 118.814 171.98 119.077 171.98C119.25 171.98 119.425 171.946 119.591 171.877L184.246 145.161C184.75 144.953 185.079 144.461 185.079 143.917V108.802C185.079 108.369 184.869 107.961 184.516 107.708Z" fill="#949292"/>
<path d="M199.633 93.2727L187.294 76.7826C187.117 76.5459 186.866 76.3743 186.581 76.2939L114.854 56.0421C114.615 55.9744 114.29 55.994 114.048 56.0609L42.32 76.3128C42.0356 76.3932 41.7848 76.5644 41.6078 76.8014L29.2684 93.2919C29.0098 93.6374 28.9329 94.0857 29.0602 94.4974C29.188 94.909 29.5054 95.2353 29.914 95.3742L90.566 115.959C90.708 116.007 90.8542 116.031 90.9989 116.031C91.3971 116.031 91.7842 115.853 92.0447 115.533L109.023 94.6055L114.056 95.9906C114.29 96.0552 114.537 96.0552 114.771 95.9906V95.9875C114.795 95.9813 114.821 95.9786 114.845 95.9717L119.878 94.5866L136.857 115.514C137.117 115.835 137.504 116.012 137.903 116.012C138.047 116.012 138.193 115.988 138.335 115.94L198.987 95.3553C199.396 95.2165 199.713 94.8902 199.841 94.4785C199.968 94.066 199.891 93.6182 199.633 93.2727ZM114.489 90.2562L63.0508 76.2031L114.489 61.7645L165.851 76.1847L114.489 90.2562Z" fill="#949292"/>
<path d="M110.275 104.787C109.738 104.597 109.138 104.765 108.778 105.209L94.3701 123.006C94.3701 123.006 93.6914 123.912 92.6434 123.552C91.3921 123.121 45.6035 107.547 45.6035 107.547C45.1918 107.408 44.7386 107.475 44.3857 107.727C44.0325 107.98 43.8232 108.388 43.8232 108.822V143.937C43.8232 144.482 44.1518 144.973 44.6555 145.181L109.311 171.898C109.476 171.966 109.651 172 109.825 172C110.088 172 110.349 171.923 110.574 171.773C110.948 171.523 111.172 171.103 111.172 170.653V106.056C111.172 105.485 110.812 104.977 110.275 104.787Z" fill="#949292"/>
</svg>
