<svg width="228" height="228" viewBox="0 0 228 228" fill="none" xmlns="http://www.w3.org/2000/svg">
<path d="M113.662 56.0154C113.616 56.0154 113.597 56.0154 113.579 56.0154C113.541 56.0154 113.541 56.0154 113.532 56.0154C113.532 56.0154 113.532 56.0154 113.518 56.0154C113.504 56.0154 113.486 56.0154 113.467 56.0154C113.458 56.0154 113.458 56.0154 113.458 56.0154C113.458 56.0154 113.458 56.0154 113.439 56.0154C113.314 55.9875 113.277 56.0061 113.184 56.0061C98.3055 56.0061 83.8314 61.9053 73.1337 72.2778L61.3723 60.3353C60.801 59.7779 59.937 59.6014 59.2309 59.8987C58.4924 60.2145 58 60.9206 58 61.7288V100.506C58 101.598 58.8872 102.48 59.9649 102.48H98.2683C98.2915 102.48 98.3334 102.48 98.3612 102.48C99.4482 102.48 100.331 101.602 100.331 100.506C100.331 99.7814 99.9359 99.1404 99.346 98.8013L87.7286 87.0446C94.6173 80.3928 103.606 76.7511 113.462 76.7511C133.576 76.8811 149.959 93.348 149.959 113.796C149.806 133.89 133.329 150.246 112.891 150.246L112.938 171H113.221C144.71 171 170.509 145.368 170.713 113.512C170.713 82.0418 145.147 56.2801 113.662 56.0154Z" fill="#949292"/>
<circle cx="114" cy="114" r="112.5" stroke="#C0C0C0" stroke-width="3"/>
</svg>
