<svg width="228" height="228" viewBox="0 0 228 228" fill="none" xmlns="http://www.w3.org/2000/svg">
<path d="M90.2329 115.4C90.3301 113.816 90.4273 112.231 90.6349 110.629C91.0187 106.832 91.8433 103.019 92.6859 99.3104C93.1988 97.4605 93.7544 95.633 94.3372 93.8464C95.0826 92.1026 95.812 90.3681 96.5395 88.674C98.1861 85.3671 100.027 82.2772 102.225 79.6908C102.747 79.0244 103.264 78.3786 103.77 77.7304C104.348 77.1522 104.927 76.592 105.484 76.0317C106.661 74.9679 107.682 73.8158 108.857 72.9709C111.199 71.2364 113.271 69.5875 115.38 68.5664C117.413 67.4322 119.157 66.4478 120.729 65.8922C123.809 64.6522 125.558 64.0289 125.558 64.0289C125.558 64.0289 124.067 65.2125 121.461 67.1325C120.114 68.0112 118.687 69.3981 116.988 70.8188C115.217 72.1739 113.614 74.1164 111.707 75.978C110.754 76.9291 110.014 78.1239 109.112 79.2239C108.674 79.7841 108.224 80.3487 107.761 80.9226C107.386 81.5552 106.997 82.1897 106.604 82.8379C104.922 85.3318 103.664 88.2591 102.353 91.2293C101.815 92.7834 101.271 94.36 100.715 95.9522C100.336 97.6078 99.916 99.2813 99.4575 100.949C98.7686 104.375 98.0932 107.869 97.8016 111.463C97.5986 112.766 97.5014 114.081 97.3793 115.404C125.932 115.409 148.032 115.427 178.955 115.427C179.059 114.071 179.117 112.698 179.117 111.318C179.117 85.275 160.139 63.8256 135.717 60.9841C137.294 59.5094 138.293 57.4175 138.293 55.0909C138.301 50.6187 134.678 47 130.215 47C125.747 47 122.12 50.6187 122.12 55.0909C122.12 57.4222 123.114 59.509 124.695 60.9841C100.275 63.8256 81.3018 85.275 81.3018 111.318C81.3018 112.694 81.3511 114.049 81.453 115.4C84.4687 115.4 87.3801 115.4 90.2329 115.4Z" fill="#949292"/>
<path d="M188.03 118.412H72.3994V128.613H188.03V118.412Z" fill="#949292"/>
<path d="M140.56 135.855C134.683 138.71 114.191 146.101 114.191 146.101L89.968 144.583C89.968 144.583 103.823 140.73 109.195 139.523C114.575 138.322 112.235 132.255 109.26 132.255C106.285 132.255 80.3615 133.325 80.3615 133.325L63.1475 139.523L67.7032 168.359C67.7032 168.359 71.2473 162.292 74.7824 162.292C78.3307 162.292 109.066 163.109 113.238 162.292C117.412 161.465 142.837 144.072 145.882 142.044C148.913 140.025 146.46 132.996 140.56 135.855Z" fill="#949292"/>
<path d="M40 142.622V180L66.3734 175.062L59.7756 139.143L40 142.622Z" fill="#949292"/>
<circle cx="114" cy="114" r="112.5" stroke="#C0C0C0" stroke-width="3"/>
</svg>
