<svg width="97" height="69" viewBox="0 0 97 69" fill="none" xmlns="http://www.w3.org/2000/svg">
<path d="M95.201 11.5376C94.015 6.38561 89.801 2.58461 84.728 2.01761C72.715 0.676607 60.556 0.669607 48.453 0.676607C36.348 0.669607 24.187 0.676607 12.174 2.01761C7.104 2.58461 2.893 6.38561 1.707 11.5376C0.0190001 18.8746 0 26.8836 0 34.4376C0 41.9916 0 49.9996 1.688 57.3356C2.872 62.4866 7.084 66.2876 12.157 66.8556C24.169 68.1976 36.329 68.2046 48.434 68.1976C60.541 68.2046 72.698 68.1976 84.709 66.8556C89.779 66.2886 93.994 62.4876 95.18 57.3356C96.869 49.9986 96.875 41.9906 96.875 34.4376C96.875 26.8836 96.889 18.8746 95.201 11.5376ZM35.936 49.4736C35.936 38.7576 35.936 28.1536 35.936 17.4366C46.203 22.7936 56.402 28.1146 66.734 33.5046C56.434 38.8466 46.23 44.1356 35.936 49.4736Z" fill="#707070"/>
</svg>
